<?xml version="1.0" standalone="no"?>
<!DOCTYPE svg PUBLIC "-//W3C//DTD SVG 20010904//EN"
 "http://www.w3.org/TR/2001/REC-SVG-20010904/DTD/svg10.dtd">
<svg version="1.0" xmlns="http://www.w3.org/2000/svg"
 width="560.000000pt" height="560.000000pt" viewBox="0 0 560.000000 560.000000"
 preserveAspectRatio="xMidYMid meet">
<metadata>
Created by potrace 1.14, written by Peter Selinger 2001-2017
</metadata>
<g transform="translate(0.000000,560.000000) scale(0.100000,-0.100000)"
fill="#000000" stroke="none">
<path d="M0 2800 l0 -2800 2800 0 2800 0 0 2800 0 2800 -2800 0 -2800 0 0
-2800z m3210 1665 c525 -80 1636 -388 1715 -475 17 -18 15 -22 -66 -100 -227
-220 -456 -356 -842 -499 -182 -68 -443 -148 -542 -167 -149 -28 -147 -27
-237 -127 -203 -227 -304 -306 -474 -373 -81 -32 -219 -69 -346 -94 -72 -14
-98 -42 -195 -205 -163 -276 -303 -418 -601 -613 -233 -152 -600 -319 -680
-310 -24 3 -27 7 -30 49 -4 57 57 298 211 834 224 778 369 1240 422 1344 57
114 171 161 428 181 173 13 207 17 276 36 109 31 148 74 226 251 120 276 153
296 455 289 96 -3 222 -12 280 -21z m1840 -696 c0 -12 -29 -76 -64 -143 -81
-152 -105 -224 -161 -483 -84 -385 -148 -597 -247 -823 -204 -465 -476 -750
-968 -1013 -274 -147 -509 -191 -1025 -191 -285 0 -335 2 -620 33 -331 36
-577 44 -787 27 -131 -11 -158 -5 -158 31 0 20 15 42 58 83 136 129 1090 760
1722 1138 360 216 387 233 715 478 274 204 443 320 585 401 104 60 631 343
808 435 103 53 142 61 142 27z"/>
<path d="M2945 4315 c-41 -40 -34 -82 56 -323 44 -119 87 -242 95 -272 13 -53
14 -50 10 95 -3 128 -8 162 -30 231 -14 45 -32 118 -40 163 -14 80 -36 131
-57 131 -5 0 -21 -11 -34 -25z"/>
<path d="M3681 4189 c-41 -39 -51 -79 -51 -216 0 -131 -9 -182 -49 -282 -12
-29 -20 -56 -17 -58 23 -23 93 64 158 195 29 59 31 70 28 145 -2 45 -4 117 -5
160 0 71 -1 77 -21 77 -11 0 -31 -10 -43 -21z"/>
<path d="M4050 4123 c-27 -10 -52 -37 -75 -83 -29 -57 -67 -179 -59 -191 18
-29 60 10 99 93 15 32 45 78 66 102 44 50 49 71 17 80 -26 7 -27 6 -48 -1z"/>
<path d="M4218 4031 c-20 -16 -37 -53 -71 -160 -25 -76 -49 -161 -53 -190 -6
-47 -5 -51 15 -51 23 0 53 47 127 200 25 52 56 117 70 144 28 54 25 64 -27 72
-25 4 -41 0 -61 -15z"/>
<path d="M2684 3885 c-4 -10 2 -27 15 -43 48 -61 72 -114 90 -196 25 -117 44
-137 39 -39 -3 64 -10 85 -58 180 -55 107 -74 129 -86 98z"/>
<path d="M2944 3666 c-3 -7 7 -42 21 -77 15 -35 33 -91 40 -124 11 -48 14 -53
14 -26 2 84 -38 241 -61 241 -5 0 -11 -6 -14 -14z"/>
<path d="M1690 3575 c0 -39 83 -165 122 -186 35 -19 41 3 17 66 -26 70 -82
135 -115 135 -15 0 -24 -6 -24 -15z"/>
<path d="M2050 3519 c0 -22 110 -178 151 -215 l22 -19 -20 40 c-11 22 -26 56
-32 76 -12 39 -71 113 -102 129 -16 9 -19 7 -19 -11z"/>
<path d="M3115 3426 c-15 -35 -20 -140 -9 -170 16 -43 58 6 69 80 9 54 -7 118
-28 122 -12 2 -22 -8 -32 -32z"/>
<path d="M2030 3276 c0 -36 92 -195 136 -236 77 -71 334 -180 334 -142 0 17
-39 40 -105 62 -79 26 -117 59 -214 184 -97 125 -151 173 -151 132z"/>
<path d="M2227 3213 c-4 -6 5 -21 18 -33 29 -27 33 -16 6 19 -10 13 -21 19
-24 14z"/>
<path d="M1690 3004 c0 -25 58 -103 100 -133 73 -53 138 -64 316 -56 189 9
188 25 -1 35 -66 4 -133 12 -149 19 -16 6 -64 36 -105 65 -119 83 -161 101
-161 70z"/>
<path d="M1456 2731 c-12 -19 9 -44 76 -91 98 -69 220 -90 258 -45 13 15 8 17
-71 30 -20 3 -77 30 -127 60 -87 53 -124 65 -136 46z"/>
<path d="M1371 2658 c13 -48 103 -134 152 -147 23 -5 43 -9 45 -7 1 2 -26 24
-61 49 -64 46 -127 109 -127 127 0 6 -4 10 -9 10 -6 0 -6 -12 0 -32z"/>
<path d="M1439 2236 c47 -57 164 -106 251 -106 l35 1 -25 21 c-43 36 -164 88
-221 95 -51 6 -53 5 -40 -11z"/>
<path d="M4490 3063 c1 -25 50 -56 74 -47 24 9 19 22 -14 39 -31 16 -60 20
-60 8z"/>
<path d="M3817 2948 c-6 -19 24 -101 71 -193 47 -93 68 -123 77 -113 10 10
-31 222 -50 258 -25 49 -87 79 -98 48z"/>
<path d="M4125 2900 c-4 -6 20 -38 53 -73 89 -94 149 -172 182 -237 41 -80 54
-87 48 -22 -10 101 -97 231 -211 313 -42 31 -62 36 -72 19z"/>
<path d="M3786 2472 c60 -59 94 -103 134 -173 51 -90 119 -193 125 -187 6 7
-28 165 -41 190 -21 41 -263 248 -290 248 -5 0 27 -35 72 -78z"/>
<path d="M3163 2503 c-24 -8 -13 -47 32 -118 62 -100 79 -120 94 -110 24 14
-8 112 -61 188 -22 31 -47 46 -65 40z"/>
<path d="M3535 2370 c15 -70 36 -103 50 -80 10 16 -13 75 -37 96 -20 19 -20
19 -13 -16z"/>
<path d="M4104 2263 c12 -36 36 -158 36 -180 0 -12 5 -34 11 -50 10 -26 11
-27 21 -9 17 31 4 136 -25 193 -28 53 -55 82 -43 46z"/>
<path d="M2705 2035 c14 -81 94 -225 177 -319 4 -6 -26 64 -68 155 -41 90 -84
173 -96 184 l-20 20 7 -40z"/>
<path d="M3310 1734 c0 -20 86 -165 105 -178 31 -21 72 -30 79 -18 15 24 -20
77 -92 138 -69 59 -92 73 -92 58z"/>
<path d="M3009 1662 c13 -25 40 -46 48 -39 9 10 -26 57 -43 57 -11 0 -12 -4
-5 -18z"/>
<path d="M1934 1598 c17 -88 139 -295 201 -342 19 -15 35 -25 35 -23 0 16
-162 322 -188 355 -41 51 -57 54 -48 10z"/>
<path d="M2087 1547 c-6 -18 29 -103 63 -152 31 -45 117 -123 160 -145 24 -13
24 -12 10 6 -8 10 -29 36 -47 56 -18 20 -42 56 -54 80 -30 59 -98 155 -114
162 -8 3 -16 0 -18 -7z"/>
<path d="M2700 1504 c0 -4 25 -37 55 -74 81 -98 165 -151 165 -102 0 23 -58
78 -135 129 -79 52 -85 55 -85 47z"/>
</g>
</svg>
