<svg xmlns="http://www.w3.org/2000/svg" viewBox="0 0 257.2 209.78"><defs><style>.cls-1{fill:#e30613;fill-rule:evenodd;}</style></defs><title>Ресурс 1</title><g id="Слой_2" data-name="Слой 2"><g id="Слой_1-2" data-name="Слой 1"><path class="cls-1" d="M143,124.43a26.87,26.87,0,0,1,5.44,11.09c.36,2.75-1.67,2.32-2.83,1.3s-1.45-2.61-2.75-4.78-3.62-4.93-3.84-6.89S140.72,122,143,124.43ZM111,151.18a45,45,0,0,0,2.83,8,36.69,36.69,0,0,0,3.15,6,32.72,32.72,0,0,0,2.73,3.44,17.18,17.18,0,0,1,1.61,2,20.3,20.3,0,0,0,1.44,2.13c.29.25.23-.32-.16-1.19s-1.09-2-1.77-3.41-1.32-3-2-4.6-1.48-3.21-2.22-4.79-1.45-3.12-2.09-4.47a13.44,13.44,0,0,0-2-3.34C111.7,150.12,110.73,149.6,111,151.18Zm38.17,19.36c-.29.8,1.59,4.71,3,7.25s2.46,3.7,3.55,4.42a9.26,9.26,0,0,0,3.19,1.23c.95.22,1.67.36,1.81-.43a6.53,6.53,0,0,0-1.45-4.13,35.19,35.19,0,0,0-5.22-4.93C151.88,172.06,149.41,169.74,149.13,170.54Zm-19.21,3.91a4.75,4.75,0,0,0,1.63,2.94c.94.83,2,1,2.14.4s-.76-1.89-1.71-2.72S130,173.87,129.92,174.45Zm-18.52,11.38a52.1,52.1,0,0,0,8,9.21c3,2.54,4.86,2.68,5.44,2s-.14-2.1-1.16-3.34a18.18,18.18,0,0,0-3.91-3.33c-1.59-1.09-3.48-2.25-5.44-3.55S110.38,184.09,111.39,185.83Zm-38.14-1.22a30.68,30.68,0,0,0,3.86,7.82,26.81,26.81,0,0,0,5,5.18c1.29,1.09,1.93,1.67,2.77,2.25s1.87,1.16,2.61,1.64,1.19.87,1,.49a17,17,0,0,0-1.86-2.7c-.93-1.16-2-2.32-2.92-3.37a18,18,0,0,1-2.25-3.21c-.64-1.19-1.22-2.61-2-4a32.26,32.26,0,0,0-2.48-3.6,26.83,26.83,0,0,0-1.8-2.19c-.55-.58-1.12-1.09-1.6-1S72.67,182.62,73.25,184.61Zm-9.91-5.26a34.84,34.84,0,0,0,2.19,5.46c.87,1.83,1.64,3.31,2.6,5.14a54.32,54.32,0,0,0,3.34,5.76,25.37,25.37,0,0,0,3.5,4,25.85,25.85,0,0,0,2.32,2c.61.45,1.13.77.9,0a34,34,0,0,0-2.09-4.31c-.9-1.67-1.73-3.15-2.57-4.79s-1.67-3.44-2.38-5.11a26.05,26.05,0,0,0-2.38-4.82,38.06,38.06,0,0,0-3.66-4.31c-1-1-1.28-1.41-1.57-1.25S63,177.91,63.35,179.36Zm111.51-58.88a118.58,118.58,0,0,1,9.65,7.65c3.41,2.9,5.72,5,7,6.69a10.88,10.88,0,0,1,1.93,5.21c.39,2.06.9,4.76,1.16,6.3s.26,1.93-.77.65a81.61,81.61,0,0,1-4.7-6.88c-1.6-2.64-2.77-5-4-7.07a30,30,0,0,0-4.37-5.73c-1.67-1.67-3.6-3.09-5.08-4.63S173.12,119.45,174.86,120.48Zm-11.7,9.32c.65.22,2.39,2.82,2.9,4.64s-.21,2.83-.87,2.61-1.23-1.66-1.74-3.48S162.5,129.58,163.15,129.8Zm17.36-32.26c.73,3.27,3.92,9.93,6.09,13.7s3.34,4.64,3.48,3.48-.72-4.35-1.3-7.39-.87-5.95-1.74-8a7.59,7.59,0,0,0-3.91-4.13C181.53,94.42,179.79,94.27,180.51,97.54Zm42.34-9.68c.77-.35,2.83.87,4,1.74s1.32,1.38.55,1.73a3.93,3.93,0,0,1-3.63-.32C222.59,90.15,222.08,88.22,222.85,87.86ZM203,98.9a44.22,44.22,0,0,1,7.72,6.88,30.09,30.09,0,0,1,5,7.59,21,21,0,0,1,1.7,5.76c.26,1.73.33,3.41-.16,3.44s-1.51-1.58-2.44-3.28-1.77-3.5-2.86-5.24a48.37,48.37,0,0,0-4-5.24c-1.54-1.83-3.28-3.83-4.76-5.34a40.68,40.68,0,0,1-3.28-3.38c-.58-.84-.52-1.48-.1-1.89S200.95,97.58,203,98.9Zm-3.11,46.19c.36,2.18.58,4.64,1,6.42s1,2.86,1.45,2.32.83-2.72.83-4.68a15.8,15.8,0,0,0-.9-5.25,24,24,0,0,0-2.1-4.35,12,12,0,0,0-2.07-2.94c-.29-.07.08,1.23.51,2.83A54.21,54.21,0,0,1,199.87,145.09ZM25.92,187c14.84-10.25,41.78-28,59.77-39.51s27-16.78,35-21.46,14.91-8.76,22-13.63,14.45-10.52,20.62-15.16,11.18-8.27,16.23-11.86a199.71,199.71,0,0,1,20.27-12.89c10.14-5.73,25.34-13.61,36.46-19.62s18.15-10.14,20.19-9.56-.93,5.87-3.43,10.38a64.23,64.23,0,0,0-6.34,14.16c-1.78,5.94-3.29,14.11-5.67,24.72a230.78,230.78,0,0,1-11.39,37.73c-5.76,14.07-14,29.15-26,41.38S176.16,193.27,165,198.82s-17.79,7.24-28.84,8.74a240.86,240.86,0,0,1-44.45,1.92c-17.94-.91-38.37-4-52.85-4.66s-23,1.26-27.58,1.33-5.14-1.67-4.06-3.92S11.08,197.22,25.92,187Z"/><path class="cls-1" d="M32.48,139.52c.39,1,3.48,3,5.28,4.18a9.74,9.74,0,0,0,4.05,1.8,55.28,55.28,0,0,0,6.5,1c1.8.13,2.44-.13,1.48-1a32.11,32.11,0,0,0-6-3.67,30.76,30.76,0,0,0-7.07-2.64C34.41,138.68,32.1,138.56,32.48,139.52ZM30,116.38c.92,1.13,2.54,2.88,3.63,4a6.55,6.55,0,0,0,2.74,1.93,36,36,0,0,0,3.75,1c1,.22,1.22.28,1,0a11.94,11.94,0,0,0-1.77-1.61c-.79-.6-1.62-1.12-2.31-1.62s-1.21-1-1.77-1.41-1.13-.73-1.56-1.06a12.8,12.8,0,0,1-1.13-1.09c-.43-.43-1-.94-1.49-1.4A5.62,5.62,0,0,1,30,113.57a12.56,12.56,0,0,0-1-1.88c-.36-.45-.78-.53-.86-.22a4.66,4.66,0,0,0,.32,1.55c.14.53.18.88.3,1.31A5.56,5.56,0,0,0,30,116.38Zm6.46-7.8c2.06.65,5.4,3.09,8,4.7a18.16,18.16,0,0,0,6.43,2.7c1.86.32,3.66.19,4.18.64s-.26,1.48-1.74,2a13.53,13.53,0,0,1-5.66.26,16.16,16.16,0,0,1-5.53-1.67,32.19,32.19,0,0,1-5-3.41c-1.54-1.22-3-2.38-3.28-3.54S34.41,107.94,36.47,108.59ZM52.36,92.38c2.89,1.67,7.52,5.53,11.32,7.52A17.45,17.45,0,0,0,73,102a42.08,42.08,0,0,1,6.94,0,13.1,13.1,0,0,1,4.7,1.54c.33.32-1.22.07-3.41.07s-5,.25-7.59.51a45.81,45.81,0,0,1-7.07.39,25.57,25.57,0,0,1-6.43-1.35,20.66,20.66,0,0,1-6.24-3A19.91,19.91,0,0,1,50,95.53c-1-1.48-1.93-2.64-1.8-3.48S49.46,90.71,52.36,92.38ZM69.63,74.73c-.22,1.23,1.67,5.58,3.48,8.84a25.34,25.34,0,0,0,5.29,7,22.67,22.67,0,0,0,5.22,3.26c1.74.87,3.48,1.74,5.29,2.61a41.43,41.43,0,0,0,5.58,2.32c1.89.58,3.77.87,4.21.36s-.58-1.81-2.4-2.75-4.42-1.52-6.52-2.39a15.43,15.43,0,0,1-5.15-3.48A48.91,48.91,0,0,1,80.21,85a82.7,82.7,0,0,0-5.87-7.32C72.17,75.38,69.85,73.49,69.63,74.73Zm1.55-12.8a59,59,0,0,0,4.38,6c1.31,1.7,1.74,2.44,2.39,3.34a24.94,24.94,0,0,0,2.16,2.61c.64.65,1.06.89,1.26.89s.19-.24-.17-.92a36.32,36.32,0,0,1-1.66-3.25c-.62-1.47-1.16-3.28-1.94-4.84a16.38,16.38,0,0,0-2.72-3.88,17.85,17.85,0,0,0-2.49-2.23c-.64-.48-1-.68-1.4-.43S70.27,60.24,71.18,61.93ZM81.81,80.39a8.07,8.07,0,0,0,1.49,1.54,2.17,2.17,0,0,0,1.22.57c.3,0,.49-.16.46-.36s-.29-.42-.59-.76a10.76,10.76,0,0,1-.94-1.26,7.06,7.06,0,0,1-.6-1.15c-.11-.29-.13-.45-.34-.37a2.2,2.2,0,0,0-.81.71C81.49,79.63,81.49,79.92,81.81,80.39ZM48.43,56.8c.07,2,3,7,5.29,9.57s4.06,2.9,4.5,2-.44-2.9-1.38-5.07-2-4.49-3.84-6.09S48.36,54.77,48.43,56.8ZM53,42.71a48.57,48.57,0,0,0,4.09,4.66c1.09,1.09,1.29,1.09,1,.55S57,46.28,56.41,45.09s-1-2.48-1.45-3.41A3.39,3.39,0,0,0,53.38,40a.93.93,0,0,0-1.19.38C52,40.75,52,41.33,53,42.71ZM113.2,39a88.51,88.51,0,0,1,4.34,8.14,23.91,23.91,0,0,1,1.84,7.1c.26,2.16.38,4.28,0,4.7s-1.29-.87-1.74-1.86a9.09,9.09,0,0,1-.61-2.93c-.16-1.22-.48-3-.84-4.44A19.72,19.72,0,0,0,115,46a14.75,14.75,0,0,0-1.67-2.67c-.61-.8-1.25-1.57-1.93-2.44A5.18,5.18,0,0,1,110,38.11a1.9,1.9,0,0,1,1.22-1.8C111.72,36.25,112,37,113.2,39Zm13.12-17.35c2,5.79,6,15.56,8,21.67a41,41,0,0,1,2.12,9.13c.13.58.39-.71.45-4.57A91.37,91.37,0,0,0,136,33.08c-.77-4.5-2.19-7.07-3-10.1s-.9-6.49-1.48-9.07S130,9.67,128.7,9.54s-2.83,1.29-3.6,2.89S124.32,15.84,126.32,21.63Zm10,45.66c-.71,3.09-.58,8.36.32,10s2.57-.45,3.41-2.64a15.52,15.52,0,0,0,.71-6.56c-.13-2.06-.39-3.86-1.29-4.31S137.06,64.21,136.35,67.3ZM126.19,51.72a6.07,6.07,0,0,0,.68,2.57l.9,2.12c.48,1.13,1.32,3.05,1.77,4.44a15.2,15.2,0,0,1,.64,3.15,23.67,23.67,0,0,0,.51,2.67c.19.71.39,1.09.52.48a13.68,13.68,0,0,0,0-3.51c-.16-1.29-.55-2.25-.8-3.73s-.39-3.48-.61-4.76a6.91,6.91,0,0,0-.9-2.51c-.36-.65-.74-1.35-1-1.9s-.38-.93-.74-.77A2.27,2.27,0,0,0,126.19,51.72Zm43.28-29.25c-1.28,3.92-.64,10.36-.71,14.79a23.34,23.34,0,0,1-1.61,8.88c-.77,2-1.54,3.53-2,4.89s-.58,2.51.06,2.64,2.06-.77,3.34-2.32a43.39,43.39,0,0,0,3.6-5.72A62.94,62.94,0,0,0,175.32,40a15.3,15.3,0,0,0,1.41-5.85,50,50,0,0,0-.58-6.63,36.42,36.42,0,0,1-.19-6.95c.19-2,.71-3.41-.64-3.41S170.76,18.54,169.47,22.47Zm21,4.89a52.75,52.75,0,0,0-3.47,9.2c-.71,2.44-.84,3.34-.2,3.66a3.17,3.17,0,0,0,3.22-1.16c1.16-1.22,2.06-3.41,2.9-5.27a17,17,0,0,1,3.09-5c1.48-1.61,3.66-3.28,3.66-4.5s-2.19-2-4.11-1.61S192,24.59,190.5,27.36Zm11.9,6.56c-1.67,4.69-4.37,12.93-4.82,16.78s1.35,3.34,2.64,2,2.06-3.54,3.08-5.46,2.32-3.6,3.47-6,2.19-5.66,3.41-8,2.64-3.92,1.86-4.82-3.73-1.16-5.53-.71S204.07,29.22,202.4,33.92ZM4.54,162.14c6.07-22.53,18.9-66.45,26.2-90s9.07-26.78,12.19-29.4S50.5,38.06,56.77,37s14.36-1.09,20.48-1.86,10.28-2.27,13.14-4.87,4.43-6.3,6.29-10.66,4-9.35,6.48-13S108.46.79,117,.17,139.7.56,159.7,4.62s45.81,11.16,62.05,16.09,22.91,7.68,26,9.28,2.68,2-.27,5a131.4,131.4,0,0,1-15.82,13.78C224.3,54.12,215,59.39,201.51,64.88s-31.22,11.18-40.33,13.32-9.63.71-12.83,3.83-9.07,10.76-14.85,16.16a54.92,54.92,0,0,1-17,10.86,91.41,91.41,0,0,1-15.16,4.73c-4.18.94-7.13,1.32-9.34,1.92s-3.71,1.39-6.54,5.9-7,12.7-12.94,20.23-13.66,14.38-22.86,20.79A200.27,200.27,0,0,1,21.26,179c-8.55,4-15,6-18.55,6.4S-1.53,184.67,4.54,162.14Z"/><path class="cls-1" d="M53,42.71a48.57,48.57,0,0,0,4.09,4.66c1.09,1.09,1.29,1.09,1,.55S57,46.28,56.41,45.09s-1-2.48-1.45-3.41A3.39,3.39,0,0,0,53.38,40a.93.93,0,0,0-1.19.38C52,40.75,52,41.33,53,42.71Z"/></g></g></svg>